<svg width="77" height="61" viewBox="0 0 77 61" fill="none" xmlns="http://www.w3.org/2000/svg">
<path d="M40.1304 0.545843C39.5147 0.279448 38.8393 0.181205 38.1731 0.261141C37.507 0.341077 36.874 0.596327 36.3388 1.00084L18.2146 15.3333H4.375C3.36939 15.3333 2.40496 15.7328 1.69389 16.4439C0.982814 17.155 0.583336 18.1194 0.583336 19.125V41.875C0.583336 42.8806 0.982814 43.845 1.69389 44.5561C2.40496 45.2672 3.36939 45.6667 4.375 45.6667H18.2146L36.1492 59.9992C36.8163 60.5344 37.6447 60.8284 38.5 60.8333C39.0664 60.8427 39.6263 60.7125 40.1304 60.4542C40.7757 60.1469 41.3209 59.6635 41.7033 59.0597C42.0857 58.4559 42.2896 57.7563 42.2917 57.0417V3.95834C42.2896 3.24367 42.0857 2.54411 41.7033 1.94034C41.3209 1.33656 40.7757 0.853152 40.1304 0.545843ZM34.7083 49.155L21.8925 38.9175C21.2254 38.3823 20.3969 38.0883 19.5417 38.0833H8.16667V22.9167H19.5417C20.3969 22.9117 21.2254 22.6177 21.8925 22.0825L34.7083 11.845V49.155ZM67.5442 9.03918C66.8302 8.32519 65.8618 7.92408 64.8521 7.92408C63.8424 7.92408 62.874 8.32519 62.16 9.03918C61.446 9.75316 61.0449 10.7215 61.0449 11.7313C61.0449 12.741 61.446 13.7094 62.16 14.4233C64.3927 16.6526 66.1374 19.3219 67.283 22.2617C68.4287 25.2014 68.9503 28.3473 68.8148 31.4995C68.6793 34.6517 67.8896 37.7413 66.4959 40.5719C65.1022 43.4025 63.135 45.9122 60.7192 47.9417C60.1325 48.4433 59.7128 49.1121 59.5164 49.8586C59.32 50.6051 59.3561 51.3938 59.6199 52.1193C59.8837 52.8448 60.3626 53.4724 60.9927 53.9184C61.6227 54.3644 62.3739 54.6074 63.1458 54.615C64.0318 54.6167 64.8903 54.3082 65.5725 53.7429C68.799 51.0406 71.4278 47.6964 73.2918 43.923C75.1558 40.1496 76.2142 36.0297 76.3996 31.8251C76.585 27.6205 75.8935 23.4234 74.3689 19.5006C72.8444 15.5777 70.5202 12.0151 67.5442 9.03918ZM56.8138 19.7696C56.4602 19.4161 56.0405 19.1356 55.5786 18.9443C55.1167 18.753 54.6216 18.6545 54.1217 18.6545C53.6217 18.6545 53.1266 18.753 52.6647 18.9443C52.2028 19.1356 51.7831 19.4161 51.4296 19.7696C51.0761 20.1231 50.7956 20.5428 50.6043 21.0047C50.413 21.4666 50.3145 21.9617 50.3145 22.4617C50.3145 22.9616 50.413 23.4567 50.6043 23.9186C50.7956 24.3805 51.0761 24.8002 51.4296 25.1538C52.8537 26.5694 53.6582 28.492 53.6667 30.5C53.6676 31.6047 53.4271 32.6963 52.9621 33.6983C52.4971 34.7004 51.8188 35.5887 50.9746 36.3013C50.5906 36.6196 50.2733 37.0105 50.0406 37.4516C49.808 37.8928 49.6647 38.3755 49.6189 38.8721C49.5731 39.3687 49.6258 39.8695 49.7738 40.3458C49.9219 40.822 50.1624 41.2644 50.4817 41.6475C50.8027 42.0287 51.1956 42.3429 51.6381 42.5721C52.0806 42.8013 52.5639 42.941 53.0605 42.9832C53.557 43.0255 54.057 42.9695 54.5319 42.8183C55.0067 42.6672 55.4471 42.424 55.8279 42.1025C57.5232 40.6811 58.887 38.9059 59.8237 36.9016C60.7603 34.8973 61.2472 32.7124 61.25 30.5C61.2286 26.4813 59.6365 22.6302 56.8138 19.7696Z" fill="white"/>
</svg>
