<?xml version="1.0" encoding="UTF-8"?>
<svg xmlns="http://www.w3.org/2000/svg" xmlns:xlink="http://www.w3.org/1999/xlink" width="85px" height="85px" viewBox="0 0 85 85" version="1.1">
<g id="surface1">
<path style=" stroke:none;fill-rule:nonzero;fill:rgb(100%,100%,100%);fill-opacity:1;" d="M 44.070312 23.773438 L 41.753906 23.773438 C 40.71875 23.773438 39.878906 24.613281 39.878906 25.652344 L 39.878906 41.976562 C 39.878906 43.011719 40.71875 43.851562 41.753906 43.851562 L 45.835938 43.851562 C 49.121094 43.851562 51.792969 41.179688 51.792969 37.894531 C 51.792969 35.816406 50.722656 33.980469 49.101562 32.914062 C 49.6875 31.996094 50.027344 30.902344 50.027344 29.730469 C 50.027344 26.445312 47.355469 23.773438 44.070312 23.773438 Z M 43.628906 27.527344 L 44.070312 27.527344 C 45.285156 27.527344 46.277344 28.515625 46.277344 29.730469 C 46.277344 30.949219 45.285156 31.9375 44.070312 31.9375 L 43.628906 31.9375 Z M 45.835938 40.097656 L 43.628906 40.097656 L 43.628906 35.6875 L 45.835938 35.6875 C 47.050781 35.6875 48.039062 36.679688 48.039062 37.894531 C 48.039062 39.109375 47.050781 40.097656 45.835938 40.097656 Z M 45.835938 40.097656 "/>
<path style=" stroke:none;fill-rule:nonzero;fill:rgb(100%,100%,100%);fill-opacity:1;" d="M 58.175781 27.527344 C 59.390625 27.527344 60.382812 28.515625 60.382812 29.734375 C 60.382812 30.769531 61.222656 31.609375 62.257812 31.609375 C 63.292969 31.609375 64.132812 30.769531 64.132812 29.734375 C 64.132812 26.449219 61.460938 23.773438 58.175781 23.773438 C 54.890625 23.773438 52.21875 26.449219 52.21875 29.734375 L 52.21875 37.894531 C 52.21875 41.179688 54.890625 43.851562 58.175781 43.851562 C 61.460938 43.851562 64.132812 41.179688 64.132812 37.894531 C 64.132812 36.855469 63.292969 36.015625 62.257812 36.015625 C 61.222656 36.015625 60.382812 36.855469 60.382812 37.894531 C 60.382812 39.109375 59.390625 40.097656 58.175781 40.097656 C 56.960938 40.097656 55.972656 39.109375 55.972656 37.894531 L 55.972656 29.734375 C 55.972656 28.515625 56.960938 27.527344 58.175781 27.527344 Z M 58.175781 27.527344 "/>
<path style=" stroke:none;fill-rule:nonzero;fill:rgb(100%,100%,100%);fill-opacity:1;" d="M 28.246094 43.792969 C 28.40625 43.832031 28.5625 43.851562 28.71875 43.851562 C 29.554688 43.851562 30.316406 43.289062 30.535156 42.445312 L 31.144531 40.082031 L 34.730469 40.082031 L 35.34375 42.445312 C 35.601562 43.449219 36.625 44.050781 37.628906 43.792969 C 38.632812 43.53125 39.238281 42.507812 38.976562 41.503906 L 34.753906 25.179688 C 34.542969 24.351562 33.792969 23.773438 32.9375 23.773438 C 32.082031 23.773438 31.335938 24.351562 31.121094 25.179688 L 26.898438 41.503906 C 26.640625 42.507812 27.242188 43.53125 28.246094 43.792969 Z M 33.761719 36.328125 L 32.117188 36.328125 L 32.9375 33.144531 Z M 33.761719 36.328125 "/>
<path style=" stroke:none;fill-rule:nonzero;fill:rgb(100%,100%,100%);fill-opacity:1;" d="M 62.257812 45.445312 L 28.71875 45.445312 C 27.679688 45.445312 26.839844 46.285156 26.839844 47.324219 C 26.839844 48.359375 27.679688 49.199219 28.71875 49.199219 L 62.257812 49.199219 C 63.292969 49.199219 64.132812 48.359375 64.132812 47.324219 C 64.132812 46.285156 63.292969 45.445312 62.257812 45.445312 Z M 62.257812 45.445312 "/>
<path style=" stroke:none;fill-rule:nonzero;fill:rgb(100%,100%,100%);fill-opacity:1;" d="M 28.71875 21.898438 L 62.257812 21.898438 C 63.292969 21.898438 64.132812 21.058594 64.132812 20.023438 C 64.132812 18.984375 63.292969 18.144531 62.257812 18.144531 L 28.71875 18.144531 C 27.679688 18.144531 26.839844 18.984375 26.839844 20.023438 C 26.839844 21.058594 27.679688 21.898438 28.71875 21.898438 Z M 28.71875 21.898438 "/>
<path style=" stroke:none;fill-rule:nonzero;fill:rgb(100%,100%,100%);fill-opacity:1;" d="M 71.257812 0 L 21.976562 0 C 16.371094 0 11.808594 4.558594 11.808594 10.167969 L 11.808594 74.777344 C 11.808594 80.382812 16.371094 84.945312 21.976562 84.945312 L 71.257812 84.945312 C 72.296875 84.945312 73.136719 84.105469 73.136719 83.070312 L 73.136719 1.875 C 73.136719 0.839844 72.296875 0 71.257812 0 Z M 69.382812 64.613281 L 23.851562 64.613281 L 23.851562 3.753906 L 69.382812 3.753906 Z M 20.097656 4.035156 L 20.097656 64.789062 C 18.402344 65.105469 16.851562 65.847656 15.5625 66.898438 L 15.5625 10.167969 C 15.5625 7.28125 17.476562 4.835938 20.097656 4.035156 Z M 21.976562 81.191406 C 18.4375 81.191406 15.5625 78.316406 15.5625 74.777344 C 15.5625 71.242188 18.4375 68.363281 21.976562 68.363281 L 69.382812 68.363281 L 69.382812 70.273438 L 26.105469 70.273438 C 25.066406 70.273438 24.226562 71.117188 24.226562 72.152344 C 24.226562 73.1875 25.066406 74.027344 26.105469 74.027344 L 69.382812 74.027344 L 69.382812 75.527344 L 58.003906 75.527344 C 56.964844 75.527344 56.125 76.371094 56.125 77.40625 C 56.125 78.441406 56.964844 79.28125 58.003906 79.28125 L 69.382812 79.28125 L 69.382812 81.191406 Z M 21.976562 81.191406 "/>
</g>
</svg>
