<?xml version="1.0" encoding="UTF-8"?>
<svg xmlns="http://www.w3.org/2000/svg" xmlns:xlink="http://www.w3.org/1999/xlink" width="85px" height="85px" viewBox="0 0 85 85" version="1.1">
<g id="surface1">
<path style=" stroke:none;fill-rule:nonzero;fill:rgb(100%,100%,100%);fill-opacity:1;" d="M 61.09375 27.890625 L 45.15625 27.890625 L 45.15625 17.265625 L 74.375 17.265625 C 76.574219 17.261719 78.355469 15.480469 78.359375 13.28125 L 78.359375 2.65625 L 73.046875 2.65625 L 73.046875 11.953125 L 43.828125 11.953125 C 41.628906 11.957031 39.847656 13.738281 39.84375 15.9375 L 39.84375 27.890625 L 23.90625 27.890625 C 12.175781 27.90625 2.671875 37.410156 2.65625 49.140625 L 2.65625 65.902344 C 2.664062 74.246094 9.425781 81.007812 17.769531 81.015625 L 18.070312 81.015625 C 22.558594 81.023438 26.8125 79.027344 29.683594 75.578125 L 38.433594 65.078125 L 46.507812 65.078125 L 55.25 76.441406 C 59.195312 81.574219 65.972656 83.621094 72.09375 81.539062 C 78.222656 79.457031 82.34375 73.703125 82.34375 67.230469 L 82.34375 49.140625 C 82.328125 37.410156 72.824219 27.90625 61.09375 27.890625 Z M 77.03125 67.230469 C 77.03125 71.425781 74.359375 75.15625 70.382812 76.507812 C 66.410156 77.863281 62.015625 76.535156 59.460938 73.207031 L 49.121094 59.765625 L 35.945312 59.765625 L 25.597656 72.175781 C 23.738281 74.414062 20.980469 75.707031 18.070312 75.703125 L 17.769531 75.703125 C 12.359375 75.695312 7.976562 71.3125 7.96875 65.902344 L 7.96875 49.140625 C 7.976562 40.339844 15.105469 33.210938 23.90625 33.203125 L 61.09375 33.203125 C 69.894531 33.210938 77.023438 40.339844 77.03125 49.140625 Z M 77.03125 67.230469 "/>
<path style=" stroke:none;fill-rule:nonzero;fill:rgb(100%,100%,100%);fill-opacity:1;" d="M 59.765625 41.171875 L 65.078125 41.171875 L 65.078125 46.484375 L 59.765625 46.484375 Z M 59.765625 41.171875 "/>
<path style=" stroke:none;fill-rule:nonzero;fill:rgb(100%,100%,100%);fill-opacity:1;" d="M 59.765625 54.453125 L 65.078125 54.453125 L 65.078125 59.765625 L 59.765625 59.765625 Z M 59.765625 54.453125 "/>
<path style=" stroke:none;fill-rule:nonzero;fill:rgb(100%,100%,100%);fill-opacity:1;" d="M 53.125 47.8125 L 58.4375 47.8125 L 58.4375 53.125 L 53.125 53.125 Z M 53.125 47.8125 "/>
<path style=" stroke:none;fill-rule:nonzero;fill:rgb(100%,100%,100%);fill-opacity:1;" d="M 66.40625 47.8125 L 71.71875 47.8125 L 71.71875 53.125 L 66.40625 53.125 Z M 66.40625 47.8125 "/>
<path style=" stroke:none;fill-rule:nonzero;fill:rgb(100%,100%,100%);fill-opacity:1;" d="M 25.234375 41.171875 L 19.921875 41.171875 L 19.921875 47.8125 L 13.28125 47.8125 L 13.28125 53.125 L 19.921875 53.125 L 19.921875 59.765625 L 25.234375 59.765625 L 25.234375 53.125 L 31.875 53.125 L 31.875 47.8125 L 25.234375 47.8125 Z M 25.234375 41.171875 "/>
</g>
</svg>
