<?xml version="1.0" encoding="UTF-8"?>
<svg xmlns="http://www.w3.org/2000/svg" xmlns:xlink="http://www.w3.org/1999/xlink" width="82px" height="66px" viewBox="0 0 81 66" version="1.1">
<g id="surface1">
<path style=" stroke:none;fill-rule:nonzero;fill:rgb(100%,100%,100%);fill-opacity:1;" d="M 4.980469 60.921875 L 4.980469 7.429688 L 0 7.429688 L 0 65.972656 L 81 65.972656 L 81 60.921875 Z M 4.980469 60.921875 "/>
<path style=" stroke:none;fill-rule:nonzero;fill:rgb(100%,100%,100%);fill-opacity:1;" d="M 19.816406 32.542969 C 19.816406 30.613281 18.261719 29.035156 16.355469 29.035156 L 12.03125 29.035156 C 10.128906 29.035156 8.574219 30.613281 8.574219 32.542969 L 8.574219 57.609375 L 19.816406 57.609375 Z M 19.816406 32.542969 "/>
<path style=" stroke:none;fill-rule:nonzero;fill:rgb(100%,100%,100%);fill-opacity:1;" d="M 29.917969 22.019531 C 28.015625 22.019531 26.460938 23.597656 26.460938 25.527344 L 26.460938 57.609375 L 37.695312 57.609375 L 37.695312 25.527344 C 37.695312 23.597656 36.144531 22.019531 34.238281 22.019531 Z M 29.917969 22.019531 "/>
<path style=" stroke:none;fill-rule:nonzero;fill:rgb(100%,100%,100%);fill-opacity:1;" d="M 47.800781 29.035156 C 45.898438 29.035156 44.339844 30.613281 44.339844 32.542969 L 44.339844 57.609375 L 55.582031 57.609375 L 55.582031 32.542969 C 55.582031 30.613281 54.027344 29.035156 52.125 29.035156 Z M 47.800781 29.035156 "/>
<path style=" stroke:none;fill-rule:nonzero;fill:rgb(100%,100%,100%);fill-opacity:1;" d="M 70.011719 15 L 65.683594 15 C 63.78125 15 62.226562 16.582031 62.226562 18.507812 L 62.226562 57.609375 L 73.46875 57.609375 L 73.46875 18.507812 C 73.46875 16.582031 71.910156 15 70.011719 15 Z M 70.011719 15 "/>
<path style=" stroke:none;fill-rule:nonzero;fill:rgb(100%,100%,100%);fill-opacity:1;" d="M 15.972656 24.558594 L 32.480469 11.109375 L 47.65625 24.851562 C 47.984375 25.148438 48.398438 25.296875 48.8125 25.296875 C 49.246094 25.296875 49.675781 25.132812 50.007812 24.804688 L 68.386719 6.820312 L 72.082031 10.5625 L 73.039062 10.5625 L 73.039062 0 L 62.617188 0 L 62.617188 0.96875 L 65.945312 4.339844 L 48.761719 21.152344 L 33.695312 7.503906 C 33.0625 6.925781 32.113281 6.902344 31.457031 7.441406 L 13.804688 21.824219 C 13.058594 22.433594 12.9375 23.535156 13.535156 24.296875 C 14.136719 25.046875 15.222656 25.167969 15.972656 24.558594 Z M 15.972656 24.558594 "/>
</g>
</svg>
