<svg width="128" height="128" xmlns="http://www.w3.org/2000/svg">
 <title>image2vector-1</title>

 <g>
  <title>background</title>
  <rect fill="none" id="canvas_background" height="402" width="582" y="-1" x="-1"/>
 </g>
 <g>
  <title>Layer 1</title>
  <path id="svg_1" d="m64,18.244c-0.474,0.285 -1.581,1.148 -2.462,1.918c-1.944,1.7 -5.731,4.975 -10.831,9.366c-2.099,1.807 -4.48,3.865 -5.292,4.574s-3.6,3.124 -6.195,5.37l-4.718,4.082l-28.262,0.139l-0.891,0.611c-0.49,0.336 -1.147,1.056 -1.459,1.6l-0.567,0.989l0,35.446l0.616,1.1c0.376,0.671 1,1.317 1.6,1.658l0.984,0.557l27.429,0.008l0.932,0.8c0.512,0.44 0.987,0.856 1.055,0.924c0.13,0.132 6.748,5.84 7.989,6.891c0.4,0.338 1.231,1.065 1.846,1.615s2.725,2.376 4.688,4.06c1.963,1.683 3.625,3.117 3.693,3.186c0.13,0.132 1.69,1.484 6.521,5.653c4.016,3.466 5.63,3.967 7.875,2.447c2.023,-1.37 1.85,2.983 1.85,-46.481l0,-43.889l-0.551,-0.98c-1.124,-2 -3.941,-2.791 -5.849,-1.643l-0.001,-0.001zm38.625,0.533c-2.242,1.511 -2.55,4.209 -0.767,6.723c3.863,5.447 5.018,7.303 6.942,11.151c10.562,21.13 8.325,47.401 -5.629,66.095c-3.062,4.102 -3.069,6.967 -0.021,8.522c3.198,1.631 5.517,-0.249 10.512,-8.52c15.466,-25.61 13.755,-57.919 -4.332,-81.783c-2.087,-2.753 -4.633,-3.584 -6.705,-2.188zm-11.171,11.323c-2.829,1.602 -2.962,4.046 -0.421,7.77c11.034,16.178 11.216,37.406 0.46,53.575c-2.745,4.126 -2.816,6.426 -0.25,8.085c3.403,2.199 5.926,0.296 10.224,-7.715c8.571,-15.974 8.904,-35.587 0.879,-51.815c-4.509,-9.118 -7.489,-11.827 -10.892,-9.9zm-12.182,12.189c-2.855,1.405 -3.005,3.72 -0.55,8.475c0.96,1.859 1.87,3.797 2.023,4.308c2.712,9.059 1.95,16.929 -2.449,25.286c-1.752,3.329 -1.555,5.447 0.639,6.865c2.99,1.933 5.24,0.743 7.71,-4.076c5.969,-11.649 5.896,-25.047 -0.2,-36.624c-2.301,-4.37 -4.39,-5.604 -7.172,-4.234l-0.001,0z" fill="#000000"/>
 </g>
</svg>