<svg width="66" height="74" viewBox="0 0 66 74" fill="none" xmlns="http://www.w3.org/2000/svg">
<path d="M43.2812 23.8281C45.5897 23.8281 47.8464 23.1436 49.7658 21.8611C51.6852 20.5785 53.1812 18.7556 54.0646 16.6229C54.9481 14.4901 55.1792 12.1433 54.7288 9.87919C54.2785 7.61506 53.1668 5.53533 51.5345 3.90299C49.9022 2.27065 47.8224 1.15901 45.5583 0.708652C43.2942 0.25829 40.9474 0.489432 38.8146 1.37285C36.6819 2.25627 34.859 3.75228 33.5764 5.67171C32.2939 7.59114 31.6094 9.84778 31.6094 12.1563C31.6094 15.2518 32.8391 18.2206 35.028 20.4095C37.2169 22.5984 40.1857 23.8281 43.2812 23.8281ZM43.2812 8.26563C44.0507 8.26563 44.8029 8.49381 45.4428 8.92132C46.0826 9.34883 46.5812 9.95646 46.8757 10.6674C47.1702 11.3783 47.2472 12.1606 47.0971 12.9153C46.947 13.67 46.5764 14.3632 46.0323 14.9073C45.4882 15.4515 44.795 15.822 44.0403 15.9721C43.2856 16.1222 42.5033 16.0452 41.7924 15.7507C41.0814 15.4563 40.4738 14.9576 40.0463 14.3178C39.6188 13.678 39.3906 12.9257 39.3906 12.1563C39.3906 11.1244 39.8005 10.1348 40.5302 9.40517C41.2598 8.67553 42.2494 8.26563 43.2812 8.26563ZM63.2531 43.3461C62.7344 43.6055 60.3027 44.7402 56.1527 44.7402C55.536 44.7499 54.9192 44.7283 54.3047 44.6754C49.2793 44.2863 43.9945 42.3734 38.5476 39.0016C37.8344 40.5254 36.9914 42.2438 35.9863 43.9945C43.6703 46.7828 54.9531 53.5914 54.9531 69.2188C54.9531 70.2506 54.5432 71.2402 53.8136 71.9698C53.0839 72.6995 52.0943 73.1094 51.0625 73.1094C50.0306 73.1094 49.041 72.6995 48.3114 71.9698C47.5818 71.2402 47.1719 70.2506 47.1719 69.2188C47.1719 63.1559 44.9023 58.4871 40.266 54.9856C37.3156 52.716 33.9437 51.3867 31.3824 50.641C30.7664 51.3867 30.118 52.1324 29.4047 52.8781C23.1473 59.4598 15.4957 62.8641 7.13085 62.8641C6.08023 62.8739 5.02997 62.8198 3.98593 62.702C3.44847 62.6916 2.91898 62.5701 2.43086 62.3449C1.94274 62.1197 1.50657 61.7958 1.14988 61.3937C0.793181 60.9915 0.523695 60.5198 0.358416 60.0083C0.193137 59.4968 0.135651 58.9565 0.189585 58.4217C0.243518 57.8869 0.407702 57.369 0.671778 56.9008C0.935854 56.4325 1.29409 56.0241 1.7239 55.7013C2.15371 55.3784 2.64575 55.1481 3.16901 55.025C3.69226 54.9018 4.23536 54.8884 4.76406 54.9856C11.9941 55.6988 18.3812 53.1699 23.7957 47.4961C24.8284 46.4005 25.7921 45.2419 26.6812 44.027C28.8415 41.03 30.6373 37.7867 32.0309 34.3652C27.0379 30.734 22.2719 29.275 17.7976 29.9883C15.7408 30.3054 13.799 31.1423 12.1562 32.4199H12.1887C11.4707 33.0771 10.5357 33.4465 9.56249 33.4574C8.77497 33.4608 8.00497 33.225 7.35429 32.7814C6.70361 32.3378 6.20287 31.7071 5.91828 30.9728C5.6337 30.2385 5.57865 29.4351 5.76042 28.6688C5.94219 27.9026 6.35223 27.2095 6.93632 26.6813C7.26054 26.357 10.5027 23.5039 15.9496 22.4664C24.898 20.7481 32.809 25.125 37.8992 29.0805L39.0016 29.9234H39.034C52.1648 39.7149 59.6543 36.4727 59.7191 36.4402H59.6219C60.1888 36.1681 60.8087 36.0242 61.4375 36.0188C62.3052 36.0206 63.1473 36.3123 63.8301 36.8477C64.5129 37.3831 64.9971 38.1314 65.2058 38.9736C65.4145 39.8158 65.3357 40.7036 64.9819 41.4959C64.6281 42.2881 64.0196 42.9394 63.2531 43.3461Z" fill="white"/>
</svg>
